<?xml version="1.0" standalone="no"?><!DOCTYPE svg PUBLIC "-//W3C//DTD SVG 1.1//EN" "http://www.w3.org/Graphics/SVG/1.1/DTD/svg11.dtd"><svg t="1580370947415" class="icon" viewBox="0 0 1024 1024" version="1.1" xmlns="http://www.w3.org/2000/svg" p-id="4508" width="40" height="40" xmlns:xlink="http://www.w3.org/1999/xlink"><defs><style type="text/css"></style></defs><path d="M374.869333 408.362667c-3.072-6.058667-6.101333-9.130667-12.202666-15.232-3.029333-3.029333-9.130667-6.101333-12.202667-9.130667 3.072-3.029333 6.101333-3.029333 6.101333-6.101333 3.072-3.029333 3.072-6.101333 6.101334-9.130667 0-3.072 3.029333-6.101333 3.029333-12.202667v-12.202666c0-9.130667-3.029333-18.261333-6.058667-27.392-3.072-9.173333-9.173333-15.274667-12.202666-21.333334a63.744 63.744 0 0 0-18.304-12.202666c-6.101333-3.072-15.232-3.072-21.333334-3.072H237.696v240.768h76.202667c9.130667 0 18.304-3.029333 27.434666-6.101334 9.130667-3.029333 15.232-9.130667 21.333334-15.232 6.101333-6.101333 12.202667-15.232 15.232-24.362666 3.072-9.130667 6.101333-18.304 6.101333-30.464 0-6.101333 0-15.274667-3.029333-21.333334-3.072-6.101333-3.072-12.202667-6.101334-15.274666z m-91.434666-85.333334H298.666667c6.101333 0 12.202667 3.072 15.232 6.101334 6.101333 3.072 6.101333 9.173333 6.101333 18.304s-3.029333 15.232-6.101333 18.261333c-3.029333 6.101333-9.130667 6.101333-15.232 6.101333h-15.232V323.029333z m51.797333 137.173334c-3.029333 3.029333-3.029333 6.101333-6.101333 9.130666-3.029333 3.029333-6.101333 3.029333-9.130667 6.101334-3.029333 0-6.101333 3.029333-12.202667 3.029333h-24.362666V417.536h24.362666c9.173333 0 15.232 3.029333 21.333334 9.130667 6.101333 6.101333 9.173333 12.202667 9.173333 24.362666 0 0-3.072 6.101333-3.072 9.173334z m402.304-88.405334v45.738667c-6.101333-6.101333-9.173333-15.232-15.232-24.405333-6.101333-9.130667-12.202667-15.232-18.304-21.333334l-70.101333-91.434666h-39.594667v240.768h48.725333V368.768l18.304 27.434667c6.101333 9.130667 12.202667 18.261333 21.333334 27.434666l79.232 103.594667h24.405333V283.434667h-48.768v88.362666zM399.232 326.101333h60.970667v195.029334H512V326.101333h60.970667V280.32H399.232z" fill="#424B54" p-id="4509"></path><path d="M948.138667 550.570667h-1.706667c-12.842667 0-23.424 3.712-33.621333 9.941333-8.874667-25.813333-31.530667-44.373333-60.672-44.373333-12.885333 0-25.173333 3.669333-35.328 9.898666-8.917333-25.770667-31.530667-44.373333-60.714667-44.373333a66.133333 66.133333 0 0 0-31.317333 7.808V423.125333c0-36.181333-27.477333-65.493333-64.128-65.493333-36.650667 0-66.346667 29.312-66.346667 65.493333v254.122667l-40.277333-39.850667c-25.941333-25.6-71.765333-21.930667-93.866667 0-22.016 21.888-36.522667 66.005333-4.906667 97.450667l185.301334 182.912c3.797333 3.754667 7.978667 6.912 12.416 9.557333 33.749333 27.434667 72.490667 43.605333 154.368 43.605334 186.965333 0 204.288-100.266667 204.288-223.957334V616.106667c0-36.181333-26.837333-65.493333-63.488-65.493334z" fill="#424B54" p-id="4510"></path><path d="M976.725333 746.965333c0 104.661333-0.512 189.525333-169.429333 189.525334-71.552 0-114.474667-15.872-146.986667-48l-175.402666-173.184c-15.530667-15.402667-11.605333-35.157333 1.066666-47.786667 12.714667-12.586667 36.010667-13.013333 48.298667-0.938667l94.976 93.866667v-330.410667a31.232 31.232 0 0 1 31.402667-31.061333c17.365333 0 29.226667 13.909333 29.226666 31.061333v210.133334h0.384a17.365333 17.365333 0 0 0 17.066667 20.693333 17.365333 17.365333 0 0 0 17.152-20.693333h0.341333v-86.144c0-17.109333 12.544-30.976 29.866667-30.976 0 0 30.762667-0.426667 30.762667 30.976v113.706666h0.384a17.365333 17.365333 0 0 0 17.066666 20.693334 17.365333 17.365333 0 0 0 17.152-20.693334h0.341334v-79.232c0-17.109333 12.373333-31.018667 29.696-31.018666 0 0 31.402667 1.92 31.402666 31.018666v99.925334h0.341334a17.152 17.152 0 0 0 17.109333 20.650666 16.981333 16.981333 0 0 0 16.725333-20.650666h0.298667v-68.266667c0-17.066667 12.928-30.976 30.293333-30.976 0 0 30.464-1.194667 30.464 31.018667v126.762666z" fill="#FFFFFF" p-id="4511"></path></svg>