<?xml version="1.0" standalone="no"?><!DOCTYPE svg PUBLIC "-//W3C//DTD SVG 1.1//EN" "http://www.w3.org/Graphics/SVG/1.1/DTD/svg11.dtd"><svg t="1580371179873" class="icon" viewBox="0 0 1024 1024" version="1.1" xmlns="http://www.w3.org/2000/svg" p-id="10358" width="40" height="40" xmlns:xlink="http://www.w3.org/1999/xlink"><defs><style type="text/css"></style></defs><path d="M784.077 103.322H238.899c-75.264 0-136.294 61.03-136.294 136.294v545.178c0 36.147 14.336 70.758 39.936 96.358s60.211 39.936 96.358 39.936h545.178c36.147 0 70.758-14.336 96.358-39.936s39.936-60.211 39.936-96.358v-545.28c-0.102-75.264-61.03-136.192-136.294-136.192z m-25.498 306.483L502.272 666.01c-15.974 15.974-41.882 15.974-57.958 0L264.397 486.093c-14.541-14.541-14.541-38.093 0-52.634 14.54-14.54 38.093-14.54 52.633 0l127.386 127.386c15.974 15.974 41.984 15.974 57.958 0L706.048 357.17c14.54-14.54 38.093-14.54 52.634 0 14.438 14.541 14.438 38.093-0.103 52.634z" fill="#2c2c2c" p-id="10359"></path></svg>