<?xml version="1.0" standalone="no"?><!DOCTYPE svg PUBLIC "-//W3C//DTD SVG 1.1//EN" "http://www.w3.org/Graphics/SVG/1.1/DTD/svg11.dtd"><svg t="1580131461906" class="icon" viewBox="0 0 1024 1024" version="1.1" xmlns="http://www.w3.org/2000/svg" p-id="2140" width="80" height="80" xmlns:xlink="http://www.w3.org/1999/xlink"><defs><style type="text/css"></style></defs><path d="M785.92 673.28V268.8c0-10.24-5.12-20.48-15.36-23.04L422.4 71.68c-7.68-2.56-15.36-2.56-23.04 0L46.08 243.2c-5.12 2.56-10.24 7.68-12.8 12.8-5.12 5.12-7.68 10.24-7.68 17.92v399.36c0 10.24 5.12 20.48 15.36 25.6 2.56 2.56 5.12 2.56 7.68 5.12l350.72 171.52c2.56 2.56 7.68 2.56 12.8 2.56s7.68 0 12.8-2.56l350.72-171.52c7.68-7.68 12.8-17.92 10.24-30.72zM79.36 309.76l299.52 145.92 5.12 350.72-304.64-148.48V309.76zM409.6 125.44l289.28 140.8L409.6 409.6 117.76 268.8 409.6 125.44z" fill="#8D8E8E" p-id="2141"></path><path d="M524.8 716.8c0 130.56 104.96 238.08 238.08 238.08S998.4 847.36 998.4 716.8c0-130.56-104.96-238.08-238.08-238.08s-235.52 107.52-235.52 238.08z" fill="#FFBF00" p-id="2142"></path><path d="M750.08 601.6H793.6V844.8h-43.52v-243.2z" fill="#FFFFFF" p-id="2143"></path><path d="M647.68 701.44h243.2v43.52h-243.2v-43.52z" fill="#FFFFFF" p-id="2144"></path></svg>