<?xml version="1.0" standalone="no"?><!DOCTYPE svg PUBLIC "-//W3C//DTD SVG 1.1//EN" "http://www.w3.org/Graphics/SVG/1.1/DTD/svg11.dtd"><svg t="1580371256626" class="icon" viewBox="0 0 1024 1024" version="1.1" xmlns="http://www.w3.org/2000/svg" p-id="11199" width="40" height="40" xmlns:xlink="http://www.w3.org/1999/xlink"><defs><style type="text/css"></style></defs><path d="M681.604 585.295H785.41c13.37 0 24.191-10.821 24.191-24.192v-68.419c-0.001-13.37-10.822-24.19-24.191-24.19H681.604c-13.37 0-24.191 10.82-24.191 24.19v68.42c0 13.37 10.814 24.191 24.19 24.191z m113.149-336.442zM460.084 786.39h103.82c13.376 0 24.19-10.82 24.19-24.197V693.78c0-13.377-10.814-24.192-24.19-24.192h-103.82c-13.369 0-24.188 10.815-24.188 24.192v68.414c0 13.377 10.82 24.197 24.188 24.197z m-221.511 0h103.83c13.37 0 24.19-10.82 24.19-24.197V693.78c0-13.377-10.82-24.192-24.192-24.192H238.573c-13.37 0-24.191 10.815-24.191 24.192v68.414c0 13.377 10.82 24.197 24.19 24.197z m0-201.095h103.83c13.37 0 24.19-10.821 24.19-24.192v-68.419c0-13.37-10.82-24.19-24.192-24.19H238.573c-13.37 0-24.191 10.82-24.191 24.19v68.42c0 13.37 10.82 24.191 24.19 24.191zM681.604 786.39H785.41c13.37 0 24.191-10.82 24.191-24.197V693.78c-0.001-13.377-10.822-24.192-24.191-24.192H681.604c-13.37 0-24.191 10.815-24.191 24.192v68.414c0 13.377 10.814 24.197 24.19 24.197z m-221.52-201.095h103.82c13.376 0 24.19-10.821 24.19-24.192v-68.419c0-13.37-10.814-24.19-24.19-24.19h-103.82c-13.369 0-24.188 10.82-24.188 24.19v68.42c0 13.37 10.82 24.191 24.188 24.191z m-182.576-287.3c27.029 0 49.143-22.114 49.143-49.142V103.71c0-27.029-22.115-49.142-49.143-49.142-27.028 0-49.142 22.113-49.142 49.142v145.143c0 27.028 22.114 49.142 49.142 49.142z m468.102 0c27.028 0 49.142-22.114 49.142-49.142V103.71c0-27.029-22.114-49.142-49.142-49.142s-49.143 22.113-49.143 49.142v145.143c0 27.028 22.115 49.142 49.143 49.142z" p-id="11200" fill="#2c2c2c"></path><path d="M877.122 142.851h-52.384v106.002c0 43.63-35.497 79.128-79.128 79.128s-79.128-35.497-79.128-79.128V142.85H356.636v106c0 43.631-35.497 79.129-79.128 79.129s-79.127-35.497-79.127-79.128v-106h-51.503c-45.993 0-83.416 37.41-83.416 83.4v659.78c0 45.995 37.423 83.4 83.416 83.4h730.244c45.993 0 83.416-37.405 83.416-83.4V226.252c0-45.99-37.424-83.4-83.416-83.4z m10.844 743.18c-0.001 5.97-4.87 10.827-10.844 10.827H146.884c-5.975 0-10.844-4.856-10.844-10.826V362.604h751.926v523.428z" p-id="11201" fill="#2c2c2c"></path></svg>