<?xml version="1.0" standalone="no"?><!DOCTYPE svg PUBLIC "-//W3C//DTD SVG 1.1//EN" "http://www.w3.org/Graphics/SVG/1.1/DTD/svg11.dtd"><svg t="1580309457588" class="icon" viewBox="0 0 1024 1024" version="1.1" xmlns="http://www.w3.org/2000/svg" p-id="11498" width="40" height="40" xmlns:xlink="http://www.w3.org/1999/xlink"><defs><style type="text/css"></style></defs><path d="M583.68 911.36H296.96c-128 0-230.4-102.4-230.4-230.4V296.96c0-128 102.4-230.4 230.4-230.4h271.36c117.76 0 209.92 92.16 209.92 209.92 0 20.48-15.36 35.84-35.84 35.84s-35.84-15.36-35.84-35.84c0-76.8-61.44-138.24-138.24-138.24H296.96c-87.04 0-158.72 71.68-158.72 158.72v384c0 87.04 71.68 158.72 158.72 158.72h286.72c66.56 0 122.88-56.32 122.88-122.88 0-20.48 15.36-35.84 35.84-35.84s35.84 15.36 35.84 35.84c0 107.52-87.04 194.56-194.56 194.56z" fill="#2c2c2c" p-id="11499"></path><path d="M983.04 501.76c0 5.12 0 10.24-5.12 15.36l-133.12 128c-5.12 5.12-10.24 5.12-15.36 5.12-5.12 0-10.24 0-15.36-5.12-5.12-5.12-5.12-10.24-5.12-15.36 0-5.12 0-10.24 5.12-15.36l102.4-102.4h-296.96c-5.12 0-10.24 0-15.36-5.12s-5.12-10.24-5.12-15.36c0-5.12 0-10.24 5.12-15.36 5.12-5.12 10.24-5.12 15.36-5.12h296.96l-102.4-102.4c-5.12-5.12-5.12-10.24-5.12-15.36 0-5.12 0-10.24 5.12-15.36s10.24-5.12 15.36-5.12c5.12 0 10.24 0 15.36 5.12l133.12 133.12c5.12 20.48 5.12 20.48 5.12 30.72z" fill="#2c2c2c" p-id="11500"></path><path d="M829.44 665.6c-10.24 0-15.36-5.12-20.48-10.24-5.12-5.12-10.24-10.24-10.24-20.48s5.12-15.36 10.24-20.48l81.92-81.92H614.4c-10.24 0-15.36-5.12-20.48-10.24 0-10.24-5.12-15.36-5.12-20.48s5.12-15.36 10.24-20.48c5.12-5.12 15.36-10.24 20.48-10.24h276.48l-81.92-81.92c-5.12-5.12-10.24-15.36-10.24-20.48 0-10.24 5.12-15.36 10.24-20.48 10.24-10.24 30.72-10.24 40.96 0l133.12 133.12c5.12 5.12 10.24 15.36 10.24 20.48s-10.24 10.24-15.36 20.48l-133.12 133.12c-5.12 5.12-10.24 10.24-20.48 10.24z m-209.92-174.08c-5.12 0-5.12 0-5.12 5.12l-5.12 5.12s0 5.12 5.12 5.12l5.12 5.12h322.56l-117.76 117.76v10.24s10.24 5.12 15.36 0L972.8 506.88v-5.12-5.12L834.56 358.4c-5.12-5.12-10.24-5.12-15.36 0v10.24l117.76 117.76h-317.44z" fill="#2c2c2c" p-id="11501"></path></svg>