<?xml version="1.0" standalone="no"?><!DOCTYPE svg PUBLIC "-//W3C//DTD SVG 1.1//EN" "http://www.w3.org/Graphics/SVG/1.1/DTD/svg11.dtd"><svg t="1580309218957" class="icon" viewBox="0 0 1024 1024" version="1.1" xmlns="http://www.w3.org/2000/svg" p-id="2143" width="40" height="40" xmlns:xlink="http://www.w3.org/1999/xlink"><defs><style type="text/css"></style></defs><path d="M626.688 427.008 460.8 427.008 460.8 260.096c0-13.312-8.192-21.504-21.504-21.504-13.312 0-21.504 13.312-21.504 21.504l0 165.888L251.904 425.984c-13.312 0-21.504 8.192-21.504 21.504 0 13.312 8.192 21.504 21.504 21.504l166.912 0 0 165.888c0 13.312 8.192 21.504 21.504 21.504 13.312 0 21.504-8.192 21.504-21.504L461.824 468.992l166.912 0c13.312 0 21.504-8.192 21.504-21.504C648.192 439.296 640 427.008 626.688 427.008zM955.392 933.888 734.208 712.704c64.512-68.608 102.4-161.792 102.4-264.192C836.608 230.4 657.408 51.2 439.296 51.2S43.008 230.4 43.008 448.512s179.2 396.288 396.288 396.288c102.4 0 196.608-38.912 264.192-102.4l222.208 222.208c4.096 4.096 8.192 4.096 13.312 4.096 12.288 0 21.504-8.192 21.504-21.504C960.512 943.104 960.512 939.008 955.392 933.888zM439.296 801.792c-196.608 0-354.304-157.696-354.304-354.304C84.992 256 242.688 94.208 439.296 94.208s354.304 157.696 354.304 354.304S635.904 801.792 439.296 801.792z" p-id="2144" fill="#2c2c2c"></path></svg>