<?xml version="1.0" standalone="no"?><!DOCTYPE svg PUBLIC "-//W3C//DTD SVG 1.1//EN" "http://www.w3.org/Graphics/SVG/1.1/DTD/svg11.dtd"><svg t="1579509316856" class="icon" viewBox="0 0 1024 1024" version="1.1" xmlns="http://www.w3.org/2000/svg" p-id="3113" width="50" height="50" xmlns:xlink="http://www.w3.org/1999/xlink"><defs><style type="text/css"></style></defs><path d="M567.7 292H457.4c-16 0-29-13-29-29v-85.4c0-16 13-29 29-29h110.3c16 0 29 13 29 29V263c0 16-13 29-29 29z" fill="#FFE600" p-id="3114"></path><path d="M567.7 294.5H457.4c-17.3 0-31.5-14.1-31.5-31.5v-85.4c0-17.3 14.1-31.5 31.5-31.5h110.3c17.3 0 31.5 14.1 31.5 31.5V263c0 17.4-14.1 31.5-31.5 31.5zM457.4 151.2c-14.6 0-26.5 11.9-26.5 26.5V263c0 14.6 11.9 26.5 26.5 26.5h110.3c14.6 0 26.5-11.9 26.5-26.5v-85.4c0-14.6-11.9-26.5-26.5-26.5H457.4z" fill="#333333" p-id="3115"></path><path d="M553.5 148.7h-85v-22.4c0-6.2 5-11.3 11.3-11.3h62.5c6.2 0 11.3 5 11.3 11.3v22.4z" fill="#FFE600" p-id="3116"></path><path d="M556 151.2h-90v-24.9c0-7.6 6.2-13.8 13.8-13.8h62.5c7.6 0 13.8 6.2 13.8 13.8v24.9z m-85-5h80v-19.9c0-4.8-3.9-8.8-8.8-8.8h-62.5c-4.8 0-8.8 3.9-8.8 8.8v19.9z" fill="#333333" p-id="3117"></path><path d="M457.4 292h111.9v19.2H457.4z" fill="#FFE600" p-id="3118"></path><path d="M571.8 313.7H454.9v-24.2h116.9v24.2z m-111.9-5h106.9v-14.2H459.9v14.2z" fill="#333333" p-id="3119"></path><path d="M586.9 311.2H438.3c-9.4 0-17.5 6.7-19.3 15.9l-37.2 189.6c-0.8 4.3 2.5 8.3 6.9 8.3h248.8c4.4 0 7.7-4 6.9-8.4L606.2 327c-1.9-9.2-9.9-15.8-19.3-15.8z" fill="#0086FF" p-id="3120"></path><path d="M637.5 527.5H388.6c-2.8 0-5.5-1.3-7.3-3.5-1.8-2.2-2.5-5.1-2-7.9l37.2-189.6c2-10.4 11.2-17.9 21.7-17.9h148.6c10.5 0 19.7 7.5 21.7 17.8L646.6 516c0.6 2.8-0.2 5.7-2 7.9-1.6 2.3-4.3 3.6-7.1 3.6zM438.3 313.7c-8.2 0-15.3 5.8-16.8 13.9l-37.2 189.6c-0.3 1.3 0.1 2.7 0.9 3.7s2.1 1.6 3.5 1.6h248.8c1.4 0 2.6-0.6 3.5-1.6 0.9-1 1.2-2.4 0.9-3.7l-38.1-189.6c-1.6-8-8.7-13.8-16.8-13.8H438.3z" fill="#333333" p-id="3121"></path><path d="M393.4 525h239v35.7h-239z" fill="#FFE600" p-id="3122"></path><path d="M634.8 563.2h-244v-40.7h244v40.7z m-238.9-5h234v-30.7h-234v30.7z" fill="#333333" p-id="3123"></path><path d="M393.4 560.7h103.1v93H393.4z" fill="#FFE600" p-id="3124"></path><path d="M498.9 656.2h-108v-98H499v98z m-103-5H494v-88h-98.1v88z" fill="#333333" p-id="3125"></path><path d="M392.5 653.7h112.7V743H392.5z" fill="#FFE600" p-id="3126"></path><path d="M507.8 745.5H390v-94.3h117.7v94.3z m-112.8-5h107.7v-84.3H395v84.3z" fill="#333333" p-id="3127"></path><path d="M392.5 743h112.7v53.2H392.5z" fill="#FFBC00" p-id="3128"></path><path d="M507.8 798.6H390v-58.2h117.7v58.2z m-112.8-5h107.7v-48.2H395v48.2z" fill="#333333" p-id="3129"></path><path d="M517.8 653.7h114.5V743H517.8z" fill="#FFE600" p-id="3130"></path><path d="M634.8 745.5H515.3v-94.3h119.5v94.3z m-114.5-5h109.5v-84.3H520.3v84.3z" fill="#333333" p-id="3131"></path><path d="M517.8 743h114.5v53.2H517.8z" fill="#FFBC00" p-id="3132"></path><path d="M634.8 798.6H515.3v-58.2h119.5v58.2z m-114.5-5h109.5v-48.2H520.3v48.2z" fill="#333333" p-id="3133"></path><path d="M525.7 560.7h106.7v93H525.7z" fill="#FFE600" p-id="3134"></path><path d="M634.8 656.2H523.2v-98h111.7v98z m-106.6-5h101.7v-88H528.2v88z" fill="#333333" p-id="3135"></path><path d="M496.4 560.7v96l9.6 9.3h10.3l9.4-9.7v-95.6z" fill="#FFBC00" p-id="3136"></path><path d="M517.4 668.5H505l-11.1-10.8v-99.6h34.3v99.2l-10.8 11.2z m-10.4-5h8.3l7.9-8.2v-92.2h-24.3v92.4l8.1 8z" fill="#333333" p-id="3137"></path><path d="M416.9 325.3s-13.7-3-27.1 4.4C376.3 337.1 334 411 334 411l-19 88.2 68.7 7.7L419 327.1l-2.1-1.8z" fill="#BC2000" p-id="3138"></path><path d="M385.7 509.7l-73.8-8.3 19.7-91.3 0.2-0.3c4.4-7.6 43-74.8 56.7-82.3 14.1-7.8 28.3-4.8 28.9-4.6l0.6 0.1 3.8 3.2-36.1 183.5zM318 497l63.7 7.2 34.6-176.1-0.5-0.4c-2.6-0.4-13.9-1.8-24.8 4.2-10.4 5.8-42.7 59.4-54.6 80.1L318 497z" fill="#333333" p-id="3139"></path><path d="M608.5 325.3s13.7-3 27.1 4.4c13.4 7.4 55.7 81.4 55.7 81.4l19.1 88.2-68.7 7.7-35.3-179.9 2.1-1.8z" fill="#BC2000" p-id="3140"></path><path d="M639.6 509.7l-36.1-183.6 3.8-3.2 0.6-0.1c0.6-0.1 14.8-3.1 28.9 4.6 13.6 7.5 52.3 74.7 56.7 82.3l0.2 0.3 0.1 0.4 19.6 90.9-73.8 8.4z m-30.5-181.6l34.6 176.1 63.7-7.2-18.4-85.1c-11.8-20.7-44.1-74.3-54.6-80.1-11-6-22.2-4.7-24.8-4.2l-0.5 0.5z" fill="#333333" p-id="3141"></path><path d="M324.3 500.3l-1.8 16.3s-21.2 3.1-26.7 29.4c-4.2 19.9 3.9 35.4 8.1 41.8 0.7 1.1 2.5 0.7 2.6-0.7 1.1-12.7 6.7-52.2 32.2-47 26.5 5.4 17.1 45.8 14.3 56-0.3 1.1 0.7 2 1.8 1.7 6.8-2 25.9-10 28.3-36.1 2.9-31.8-15.2-37.3-15.2-37.3l2.9-19-46.5-5.1z" fill="#3F3F3F" p-id="3142"></path><path d="M354.4 600.4c-1 0-2-0.4-2.7-1.1-1-1-1.4-2.5-1-3.8 2-7.1 7.7-31.5-0.4-44.7-2.7-4.4-6.6-7.1-12-8.2-5.1-1-9.5-0.1-13.4 2.7-3 2.3-13.1 12-15.8 42-0.1 1.7-1.3 3-2.9 3.4-1.6 0.4-3.3-0.2-4.2-1.6-4-6.1-12.8-22.6-8.4-43.7 3-14.4 10.6-22.2 16.4-26.1 4.2-2.9 8.1-4.2 10.4-4.8l1.9-17 51.5 5.8-3 19.7c5.1 2.6 17.5 11.7 15 39.1-2.6 27.9-23.7 36.3-30.1 38.2-0.6 0.1-1 0.1-1.3 0.1z m-20.2-63.2c1.6 0 3.3 0.2 5 0.5 6.7 1.4 11.8 4.9 15.3 10.5 2.9 4.7 8.8 18.7 1.5 46.7 8-2.8 22.6-11 24.6-33.3 2.7-29.5-13.3-34.7-13.5-34.7l-2.1-0.6 2.9-18.6-41.4-4.7-1.7 15.7-1.9 0.3c-0.8 0.1-19.5 3.3-24.6 27.5-3.5 16.6 2.1 30.2 6.1 37.2 1.3-11.7 5.4-33.3 17.4-42.3 3.7-2.8 7.8-4.2 12.4-4.2z" fill="#333333" p-id="3143"></path><path d="M653.5 505.6l2.6 21.4s-22.4 18.3-14.7 42.8c6.3 20.1 21.2 27 26.4 28.8 0.7 0.3 1.5-0.4 1.2-1.2-3-9.5-15.6-54.6 12.4-54.6 27.4 0 32.9 38.3 33.8 47.9 0.1 0.8 1.1 1.2 1.7 0.5 4.1-4.8 15-20.4 9-45.1-6.5-26.5-25-28.5-25-28.5l-2-17.2-45.4 5.2z" fill="#3F3F3F" p-id="3144"></path><path d="M668 601.2c-0.4 0-0.8-0.1-1.2-0.2-6.2-2.2-21.4-9.5-27.9-30.4-7.2-22.9 9.9-40.4 14.5-44.6l-2.7-22.6 50.4-5.7 2.1 17.8c5.3 1.3 19.5 7 25.2 30 6.2 25.4-4.6 41.5-9.5 47.3-0.9 1.1-2.3 1.5-3.7 1-1.3-0.4-2.3-1.6-2.4-3-0.7-7.6-5.8-45.6-31.3-45.6-5.2 0-8.9 1.7-11.4 5.1-6.8 9.2-3.7 29.9 1.4 46.3 0.4 1.3 0 2.6-0.9 3.5-0.8 0.7-1.7 1.1-2.6 1.1z m-11.7-93.4l2.5 20.2-1.1 0.9c-0.2 0.2-21 17.6-13.9 40.2 5 15.9 15.5 23 21.9 26-3.1-11-8.7-35.5 0.2-47.6 3.5-4.7 8.7-7.1 15.5-7.1 12.5 0 22.6 7.5 29.1 21.8 4.1 8.9 5.9 18.5 6.7 24.5 4.7-6.8 11-20.2 6.2-39.9-6-24.3-22.2-26.5-22.9-26.6l-2-0.2-0.2-2-1.7-14.7-40.3 4.5z" fill="#333333" p-id="3145"></path><path d="M575.1 198.6v-14.9c0-0.5-0.6-0.9-1.4-0.9h-49.1c-1.5 0-1.9 1.3-0.6 1.7l49.1 14.9c0.9 0.3 2-0.1 2-0.8z" fill="#3F3F3F" p-id="3146"></path><path d="M573.7 202c-0.4 0-0.9-0.1-1.3-0.2l-49.1-14.9c-1.7-0.5-2.8-2-2.5-3.6 0.3-1.7 1.8-3 3.9-3h49.1c2.2 0 3.9 1.5 3.9 3.4v14.9c0 1-0.5 2-1.3 2.6-0.8 0.5-1.8 0.8-2.7 0.8z m0.1-5c0.1 0 0 0 0 0z m-38.6-11.7l37.4 11.4v-11.4h-37.4z" fill="#333333" p-id="3147"></path><path d="M447 198.6v-14.9c0-0.5 0.6-0.9 1.4-0.9h49.1c1.5 0 1.9 1.3 0.6 1.7L449 199.4c-0.9 0.3-2-0.1-2-0.8z" fill="#3F3F3F" p-id="3148"></path><path d="M448.4 202c-0.9 0-1.8-0.3-2.5-0.8-0.9-0.6-1.3-1.6-1.3-2.6v-14.9c0-1.9 1.7-3.4 3.9-3.4h49.1c2 0 3.6 1.2 3.9 3 0.2 1.6-0.8 3.1-2.5 3.6l-49.1 14.9c-0.6 0.1-1.1 0.2-1.5 0.2z m-0.1-5z m1.2-11.7v11.4l37.4-11.4h-37.4z" fill="#333333" p-id="3149"></path><path d="M447 212h51.9" fill="#FFBC00" p-id="3150"></path><path d="M447 209.5h51.9v5H447z" fill="#333333" p-id="3151"></path><path d="M523.2 212h51.9" fill="#FFBC00" p-id="3152"></path><path d="M523.2 209.5h51.9v5h-51.9z" fill="#333333" p-id="3153"></path><path d="M477.4 213.8c0 4.4-3.5 7.9-7.9 7.9s-7.9-3.5-7.9-7.9" fill="#3F3F3F" p-id="3154"></path><path d="M469.5 224.2c-5.7 0-10.4-4.7-10.4-10.4h5c0 3 2.4 5.4 5.4 5.4s5.4-2.4 5.4-5.4h5c0 5.7-4.7 10.4-10.4 10.4z" fill="#333333" p-id="3155"></path><path d="M558.3 213.8c0 4.4-3.5 7.9-7.9 7.9s-7.9-3.5-7.9-7.9" fill="#3F3F3F" p-id="3156"></path><path d="M550.4 224.2c-5.7 0-10.4-4.7-10.4-10.4h5c0 3 2.4 5.4 5.4 5.4s5.4-2.4 5.4-5.4h5c0 5.7-4.7 10.4-10.4 10.4z" fill="#333333" p-id="3157"></path><path d="M505.4 220c0 22.5-18.2 40.7-40.7 40.7S424 242.4 424 220" fill="#3F3F3F" p-id="3158"></path><path d="M464.7 263.2c-23.8 0-43.2-19.4-43.2-43.2h5c0 21.1 17.1 38.2 38.2 38.2s38.2-17.1 38.2-38.2h5c0 23.8-19.4 43.2-43.2 43.2z" fill="#333333" p-id="3159"></path><path d="M599.9 220c0 22.5-18.2 40.7-40.7 40.7s-40.7-18.2-40.7-40.7" fill="#3F3F3F" p-id="3160"></path><path d="M559.2 263.2c-23.8 0-43.2-19.4-43.2-43.2h5c0 21.1 17.1 38.2 38.2 38.2s38.2-17.1 38.2-38.2h5c0 23.8-19.4 43.2-43.2 43.2z" fill="#333333" p-id="3161"></path><path d="M439.5 336.4m-7.5 0a7.5 7.5 0 1 0 15 0 7.5 7.5 0 1 0-15 0Z" fill="#00FF67" p-id="3162"></path><path d="M439.5 346.4c-5.5 0-10-4.5-10-10s4.5-10 10-10 10 4.5 10 10-4.5 10-10 10z m0-15c-2.7 0-5 2.2-5 5s2.2 5 5 5 5-2.2 5-5-2.2-5-5-5z" fill="#333333" p-id="3163"></path><path d="M469.7 336.4m-7.5 0a7.5 7.5 0 1 0 15 0 7.5 7.5 0 1 0-15 0Z" fill="#BC2000" p-id="3164"></path><path d="M469.7 346.4c-5.5 0-10-4.5-10-10s4.5-10 10-10 10 4.5 10 10-4.5 10-10 10z m0-15c-2.7 0-5 2.2-5 5s2.2 5 5 5 5-2.2 5-5-2.3-5-5-5z" fill="#333333" p-id="3165"></path><path d="M511 449.4l43.6-75.6h-87.2z" fill="#FFE600" p-id="3166"></path><path d="M511 454.4l-48-83.1h96l-48 83.1z m-39.3-78.1l39.3 68.1 39.3-68.1h-78.6z" fill="#333333" p-id="3167"></path><path d="M511 420.4l18.6-32.1h-37.2z" fill="#00FF67" p-id="3168"></path><path d="M511 425.4l-22.9-39.6h45.8L511 425.4z m-14.2-34.6l14.2 24.6 14.2-24.6h-28.4z" fill="#333333" p-id="3169"></path></svg>