<?xml version="1.0" standalone="no"?><!DOCTYPE svg PUBLIC "-//W3C//DTD SVG 1.1//EN" "http://www.w3.org/Graphics/SVG/1.1/DTD/svg11.dtd"><svg t="1580309409903" class="icon" viewBox="0 0 1024 1024" version="1.1" xmlns="http://www.w3.org/2000/svg" p-id="8002" width="40" height="40" xmlns:xlink="http://www.w3.org/1999/xlink"><defs><style type="text/css"></style></defs><path d="M936.448 332.8c-23.04-54.784-56.32-103.936-98.816-146.432s-91.648-75.776-146.432-98.816c-56.832-24.064-117.248-36.352-179.2-36.352s-122.368 12.288-179.2 36.352c-54.784 23.04-103.936 56.32-146.432 98.816s-75.776 91.648-98.816 146.432c-24.064 56.832-36.352 117.248-36.352 179.2 0 61.952 12.288 122.368 36.352 179.2 23.04 54.784 56.32 103.936 98.816 146.432s91.648 75.776 146.432 98.816c56.832 24.064 117.248 36.352 179.2 36.352s122.368-12.288 179.2-36.352c54.784-23.04 103.936-56.32 146.432-98.816s75.776-91.648 98.816-146.432c24.064-56.832 36.352-117.248 36.352-179.2 0-61.952-12.288-122.368-36.352-179.2z m-167.424 436.224C700.416 837.632 609.28 875.52 512 875.52c-96.768 0-188.416-37.888-257.024-106.496C186.368 700.416 148.48 609.28 148.48 512c0-96.768 37.888-188.416 106.496-257.024C323.584 186.368 414.72 148.48 512 148.48c96.768 0 188.416 37.888 257.024 106.496C837.632 323.584 875.52 414.72 875.52 512c-0.512 96.768-37.888 188.416-106.496 257.024z" fill="#2c2c2c" p-id="8003"></path><path d="M534.016 409.6c0-31.744 14.848-60.416 37.376-79.36-18.944-6.144-38.912-9.728-59.392-9.728-105.472 0-191.488 86.016-191.488 191.488 0 105.472 86.016 191.488 191.488 191.488 105.472 0 191.488-86.016 191.488-191.488 0-7.68-0.512-15.36-1.536-22.528-17.92 14.336-40.448 23.04-65.024 23.04-56.832 0-102.912-46.08-102.912-102.912z" fill="#2c2c2c" p-id="8004"></path><path d="M534.016 409.6c0-31.744 14.848-60.416 37.376-79.36-18.944-6.144-38.912-9.728-59.392-9.728-105.472 0-191.488 86.016-191.488 191.488 0 105.472 86.016 191.488 191.488 191.488 105.472 0 191.488-86.016 191.488-191.488 0-7.68-0.512-15.36-1.536-22.528-17.92 14.336-40.448 23.04-65.024 23.04-56.832 0-102.912-46.08-102.912-102.912z" fill="#2c2c2c" p-id="8005"></path><path d="M534.016 409.6c0-31.744 14.848-60.416 37.376-79.36-18.944-6.144-38.912-9.728-59.392-9.728-105.472 0-191.488 86.016-191.488 191.488 0 105.472 86.016 191.488 191.488 191.488 105.472 0 191.488-86.016 191.488-191.488 0-7.68-0.512-15.36-1.536-22.528-17.92 14.336-40.448 23.04-65.024 23.04-56.832 0-102.912-46.08-102.912-102.912z" fill="#2c2c2c" p-id="8006"></path><path d="M534.016 409.6c0-31.744 14.848-60.416 37.376-79.36-18.944-6.144-38.912-9.728-59.392-9.728-105.472 0-191.488 86.016-191.488 191.488 0 105.472 86.016 191.488 191.488 191.488 105.472 0 191.488-86.016 191.488-191.488 0-7.68-0.512-15.36-1.536-22.528-17.92 14.336-40.448 23.04-65.024 23.04-56.832 0-102.912-46.08-102.912-102.912z" fill="#2c2c2c" p-id="8007"></path><path d="M534.016 409.6c0-31.744 14.848-60.416 37.376-79.36-18.944-6.144-38.912-9.728-59.392-9.728-105.472 0-191.488 86.016-191.488 191.488 0 105.472 86.016 191.488 191.488 191.488 105.472 0 191.488-86.016 191.488-191.488 0-7.68-0.512-15.36-1.536-22.528-17.92 14.336-40.448 23.04-65.024 23.04-56.832 0-102.912-46.08-102.912-102.912z" fill="#2c2c2c" p-id="8008"></path></svg>