<?xml version="1.0" standalone="no"?><!DOCTYPE svg PUBLIC "-//W3C//DTD SVG 1.1//EN" "http://www.w3.org/Graphics/SVG/1.1/DTD/svg11.dtd"><svg t="1580309421755" class="icon" viewBox="0 0 1024 1024" version="1.1" xmlns="http://www.w3.org/2000/svg" p-id="8949" width="40" height="40" xmlns:xlink="http://www.w3.org/1999/xlink"><defs><style type="text/css"></style></defs><path d="M853.262222 974.222222h-682.524444A64.142222 64.142222 0 0 1 106.666667 910.165333V113.820444A64.056889 64.056889 0 0 1 170.595556 49.777778h469.447111c9.770667 0 22.328889 5.205333 29.255111 12.117333l235.918222 235.932445c6.812444 6.798222 12.131556 19.683556 12.131556 29.326222v583.04a64.142222 64.142222 0 0 1-64.085334 64.028444z m-682.666666-910.222222A49.820444 49.820444 0 0 0 120.888889 113.820444v796.344889a49.891556 49.891556 0 0 0 49.848889 49.834667h682.524444a49.877333 49.877333 0 0 0 49.848889-49.806222V327.153778c0-5.930667-3.797333-15.104-7.964444-19.271111L659.242667 71.950222c-4.238222-4.238222-13.212444-7.950222-19.2-7.950222H170.595556z" fill="#2c2c2c" p-id="8950"></path><path d="M853.262222 995.555556h-682.524444A85.489778 85.489778 0 0 1 85.333333 910.165333V113.820444C85.333333 66.744889 123.576889 28.444444 170.595556 28.444444h469.447111c15.516444 0 33.336889 7.381333 44.316444 18.360889l235.932445 235.946667c10.823111 10.808889 18.375111 29.070222 18.375111 44.401778v583.04A85.475556 85.475556 0 0 1 853.262222 995.555556zM639.559111 85.319111L170.595556 85.333333C154.951111 85.333333 142.222222 98.119111 142.222222 113.820444v796.344889c0 15.715556 12.785778 28.501333 28.515556 28.501334h682.524444A28.515556 28.515556 0 0 0 881.777778 910.193778V327.153778c-0.142222-0.782222-1.28-3.555556-2.076445-4.593778L644.152889 87.04a15.416889 15.416889 0 0 0-4.593778-1.720889z" fill="#2c2c2c" p-id="8951"></path><path d="M893.795556 353.180444H708.750222a85.347556 85.347556 0 0 1-85.262222-85.262222V82.858667c0-23.224889 16.839111-35.754667 32.668444-35.754667 6.556444 0 16.369778 2.005333 25.912889 11.548444l235.932445 235.946667c11.022222 11.022222 14.435556 25.272889 9.130666 38.115556-5.333333 12.814222-17.792 20.465778-33.336888 20.465777zM680.376889 137.400889v130.517333c0 15.644444 12.728889 28.373333 28.373333 28.373334h130.503111L680.376889 137.400889z" fill="#2c2c2c" p-id="8952"></path><path d="M381.411556 702.734222h55.296c9.728 0 18.602667 0.981333 26.624 2.944 8.021333 1.976889 14.848 5.006222 20.48 9.088 5.632 4.096 9.984 9.301333 13.056 15.630222s4.608 13.909333 4.608 22.784c0 9.059556-1.664 16.824889-4.992 23.310223s-7.936 11.761778-13.824 15.857777-12.885333 7.139556-20.992 9.102223a111.317333 111.317333 0 0 1-26.24 2.944H406.755556v79.587555h-25.344V702.734222z m25.344 80.128h26.88c6.144 0 11.818667-0.540444 17.024-1.649778 5.205333-1.109333 9.685333-2.816 13.44-5.12s6.656-5.333333 8.704-9.088c2.048-3.768889 3.072-8.362667 3.072-13.838222 0-5.461333-1.066667-10.012444-3.2-13.696a25.713778 25.713778 0 0 0-8.704-8.96 37.176889 37.176889 0 0 0-13.184-4.864c-5.12-0.938667-10.666667-1.422222-16.64-1.422222H406.755556v58.638222zM617.443556 736.270222c-3.584-4.963556-8.448-9.002667-14.592-12.16s-13.056-4.736-20.721778-4.736c-4.110222 0-8.248889 0.554667-12.416 1.664a33.877333 33.877333 0 0 0-11.392 5.376c-3.413333 2.474667-6.200889 5.560889-8.334222 9.216s-3.2 8.049778-3.2 13.184c0 4.949333 0.967111 9.088 2.944 12.416 1.962667 3.313778 4.608 6.144 7.950222 8.448 3.313778 2.304 7.253333 4.266667 11.761778 5.888s9.344 3.285333 14.464 4.992c6.158222 1.891556 12.387556 4.010667 18.688 6.4s12.032 5.560889 17.152 9.472c5.12 3.925333 9.287111 8.832 12.544 14.72s4.864 13.354667 4.864 22.4c0 9.386667-1.749333 17.521778-5.248 24.448s-8.135111 12.643556-13.937778 17.152a59.164444 59.164444 0 0 1-20.096 10.112 85.432889 85.432889 0 0 1-56.561778-3.328 65.706667 65.706667 0 0 1-26.496-19.726222l19.712-16.64c4.266667 6.314667 9.984 11.448889 17.152 15.36a47.786667 47.786667 0 0 0 23.310222 5.888c4.252444 0 8.533333-0.597333 12.785778-1.792s8.149333-3.072 11.648-5.632c3.498667-2.574222 6.357333-5.76 8.576-9.614222 2.218667-3.84 3.328-8.490667 3.328-13.937778s-1.152-10.026667-3.456-13.696-5.418667-6.798222-9.344-9.344-8.490667-4.736-13.696-6.528-10.709333-3.626667-16.512-5.504c-5.802667-1.706667-11.52-3.811556-17.137778-6.272a59.221333 59.221333 0 0 1-15.104-9.472 43.776 43.776 0 0 1-10.752-14.208c-2.730667-5.632-4.096-12.629333-4.096-20.992 0-9.059556 1.820444-16.824889 5.504-23.310222a50.176 50.176 0 0 1 14.350222-16.128c5.873778-4.266667 12.529778-7.381333 19.953778-9.344s14.890667-2.944 22.4-2.944c10.581333 0 20.465778 1.891556 29.696 5.632s16.64 8.789333 22.272 15.104l-17.962666 17.436444zM666.595556 702.734222h62.193777c11.605333 0 23.224889 1.706667 34.830223 5.12 11.591111 3.413333 22.087111 8.789333 31.473777 16.128s16.981333 16.725333 22.798223 28.16c5.788444 11.434667 8.704 25.173333 8.704 41.201778 0 15.530667-2.915556 28.970667-8.704 40.32a84.053333 84.053333 0 0 1-22.798223 28.16 98.076444 98.076444 0 0 1-31.473777 16.64 114.673778 114.673778 0 0 1-34.830223 5.518222H666.595556V702.734222z m25.329777 158.976h31.744c10.922667 0 21.034667-1.521778 30.336-4.593778a70.144 70.144 0 0 0 24.064-13.326222c6.741333-5.788444 11.989333-12.970667 15.729778-21.504s5.632-18.176 5.632-28.928c0-11.264-1.891556-21.148444-5.632-29.696a58.538667 58.538667 0 0 0-15.729778-21.376c-6.755556-5.717333-14.762667-10.069333-24.064-13.056s-19.413333-4.48-30.336-4.48h-31.744v136.96z" fill="#2c2c2c" p-id="8953"></path></svg>