<?xml version="1.0" standalone="no"?><!DOCTYPE svg PUBLIC "-//W3C//DTD SVG 1.1//EN" "http://www.w3.org/Graphics/SVG/1.1/DTD/svg11.dtd"><svg t="1580370967589" class="icon" viewBox="0 0 1024 1024" version="1.1" xmlns="http://www.w3.org/2000/svg" p-id="5289" width="40" height="40" xmlns:xlink="http://www.w3.org/1999/xlink"><defs><style type="text/css"></style></defs><path d="M928 1024h-832C44.8 1024 0 979.2 0 928v-832C0 44.8 44.8 0 96 0h832c51.2 0 96 44.8 96 96v832c0 51.2-44.8 96-96 96zM96 64c-19.2 0-32 12.8-32 32v832c0 19.2 12.8 32 32 32h832c19.2 0 32-12.8 32-32v-832c0-19.2-12.8-32-32-32h-832z" fill="#2c2c2c" p-id="5290"></path></svg>