<?xml version="1.0" standalone="no"?><!DOCTYPE svg PUBLIC "-//W3C//DTD SVG 1.1//EN" "http://www.w3.org/Graphics/SVG/1.1/DTD/svg11.dtd"><svg t="1580309446612" class="icon" viewBox="0 0 1024 1024" version="1.1" xmlns="http://www.w3.org/2000/svg" p-id="10655" width="40" height="40" xmlns:xlink="http://www.w3.org/1999/xlink"><defs><style type="text/css"></style></defs><path d="M1007.42593 16.57599a56.831964 56.831964 0 0 0-61.183961-12.543993L35.778538 368.25577a56.127965 56.127965 0 0 0-35.647978 50.239968 56.127965 56.127965 0 0 0 31.29598 53.183967l347.263783 173.631892 173.695892 347.263783a55.935965 55.935965 0 0 0 50.559968 31.42398l2.495999-0.064a55.999965 55.999965 0 0 0 50.303968-35.647978l364.159773-910.463431a56.511965 56.511965 0 0 0-12.479993-61.247961zM601.730184 932.991417L439.938285 609.471619a56.959964 56.959964 0 0 0-25.407984-25.343984L91.010503 422.335736 942.145971 81.919949 601.730184 932.991417z" p-id="10656" fill="#2c2c2c"></path></svg>