<?xml version="1.0" standalone="no"?><!DOCTYPE svg PUBLIC "-//W3C//DTD SVG 1.1//EN" "http://www.w3.org/Graphics/SVG/1.1/DTD/svg11.dtd"><svg t="1580309693645" class="icon" viewBox="0 0 1024 1024" version="1.1" xmlns="http://www.w3.org/2000/svg" p-id="12334" width="40" height="40" xmlns:xlink="http://www.w3.org/1999/xlink"><defs><style type="text/css"></style></defs><path d="M154.3977 326.7574c-2.7894 2.7873-4.5117 6.6417-4.5036 10.8964 0.0082 4.2547 1.7459 8.1029 4.5455 10.879l270.8695 268.5256c1.4244 1.4111 3.6086 1.9087 5.5736 1.0895s3.1508-2.7208 3.1508-4.7258V451.17952c88.0067 0 312.0855 2.0081 312.0855 239.4737 0 124.3341-85.5757 228.0796-199.3503 252.0699 182.7922-25.5611 324.1615-185.3327 324.1615-380.7212 0-362.9752-376.2668-366.036-436.8968-366.036V59.750400000000006c0-2.0081-1.1889-3.9127-3.159-4.7299-1.9702-0.8172-4.1585-0.3123-5.5788 1.108L154.3977 326.7574z" p-id="12335" fill="#2c2c2c"></path></svg>