<?xml version="1.0" standalone="no"?><!DOCTYPE svg PUBLIC "-//W3C//DTD SVG 1.1//EN" "http://www.w3.org/Graphics/SVG/1.1/DTD/svg11.dtd"><svg t="1580371023494" class="icon" viewBox="0 0 1026 1024" version="1.1" xmlns="http://www.w3.org/2000/svg" p-id="6818" width="40.078125" height="40" xmlns:xlink="http://www.w3.org/1999/xlink"><defs><style type="text/css"></style></defs><path d="M962.048 20.48h-896C30.72 20.48 2.048 51.712 2.048 90.624v704C2.048 833.536 30.72 865.28 66.048 865.28h896c35.328 0 64-31.744 64-70.656V90.624c0-38.912-28.672-70.144-64-70.144z" fill="#2c2c2c" opacity=".25" p-id="6819"></path><path d="M742.4 188.416c53.248 0 96.256 43.008 96.256 96.256s-43.008 96.256-96.256 96.256-96.256-43.008-96.256-96.256 43.008-96.256 96.256-96.256z m-630.784 522.24l258.048-432.64 237.568 358.912 111.104-132.096 198.144 205.824H111.616zM246.272 1019.392H39.424c-19.968 0-36.352-19.456-36.352-43.52s16.384-43.52 36.352-43.52h206.848c19.968 0 36.352 19.456 36.352 43.52s-16.384 43.52-36.352 43.52z" fill="#2c2c2c" p-id="6820"></path><path d="M614.912 1019.392H408.064c-19.968 0-36.352-19.456-36.352-43.52s16.384-43.52 36.352-43.52h206.848c19.968 0 36.352 19.456 36.352 43.52s-16.384 43.52-36.352 43.52zM983.552 1019.392h-206.848c-19.968 0-36.352-19.456-36.352-43.52s16.384-43.52 36.352-43.52h206.848c19.968 0 36.352 19.456 36.352 43.52s-16.384 43.52-36.352 43.52z" fill="#2c2c2c" opacity=".25" p-id="6821"></path></svg>