<?xml version="1.0" standalone="no"?><!DOCTYPE svg PUBLIC "-//W3C//DTD SVG 1.1//EN" "http://www.w3.org/Graphics/SVG/1.1/DTD/svg11.dtd"><svg t="1580371055368" class="icon" viewBox="0 0 1024 1024" version="1.1" xmlns="http://www.w3.org/2000/svg" p-id="7673" width="40" height="40" xmlns:xlink="http://www.w3.org/1999/xlink"><defs><style type="text/css"></style></defs><path d="M921.088 799.232h-818.176c-14.336 0-25.6-11.264-25.6-25.6v-464.896c0-14.336 11.264-25.6 25.6-25.6h818.176c14.336 0 25.6 11.264 25.6 25.6V773.632c0 13.824-11.776 25.6-25.6 25.6z m-792.576-51.2h766.976v-413.696h-766.976V748.032z" p-id="7674" fill="#2c2c2c"></path><path d="M142.336 409.6h-78.848c-33.792 0-61.44-27.648-61.44-61.44v-78.848c0-33.792 27.648-61.44 61.44-61.44h78.848c33.792 0 61.44 27.648 61.44 61.44v78.848c0 33.792-27.648 61.44-61.44 61.44zM960.512 409.6h-78.848c-33.792 0-61.44-27.648-61.44-61.44v-78.848c0-33.792 27.648-61.44 61.44-61.44h78.848c33.792 0 61.44 27.648 61.44 61.44v78.848c0 33.792-27.648 61.44-61.44 61.44zM142.336 874.496h-78.848c-33.792 0-61.44-27.648-61.44-61.44v-78.848c0-33.792 27.648-61.44 61.44-61.44h78.848c33.792 0 61.44 27.648 61.44 61.44v78.848c0 33.792-27.648 61.44-61.44 61.44zM960.512 874.496h-78.848c-33.792 0-61.44-27.648-61.44-61.44v-78.848c0-33.792 27.648-61.44 61.44-61.44h78.848c33.792 0 61.44 27.648 61.44 61.44v78.848c0 33.792-27.648 61.44-61.44 61.44zM377.344 525.312c-14.336 0-25.6-11.264-25.6-25.6v-7.168H225.28v7.168c0 14.336-11.264 25.6-25.6 25.6s-25.6-11.264-25.6-25.6v-32.768c0-14.336 11.264-25.6 25.6-25.6h177.664c14.336 0 25.6 11.264 25.6 25.6v32.768c0 14.336-11.264 25.6-25.6 25.6zM344.064 640h-111.104c-14.336 0-25.6-11.264-25.6-25.6s11.264-25.6 25.6-25.6h111.104c14.336 0 25.6 11.264 25.6 25.6s-11.264 25.6-25.6 25.6z" p-id="7675" fill="#2c2c2c"></path><path d="M288.768 640c-14.336 0-25.6-11.264-25.6-25.6v-147.456c0-14.336 11.264-25.6 25.6-25.6s25.6 11.264 25.6 25.6v147.456c0 14.336-11.776 25.6-25.6 25.6z" p-id="7676" fill="#2c2c2c"></path><path d="M824.32 640h-359.424c-14.336 0-25.6-11.264-25.6-25.6s11.264-25.6 25.6-25.6H824.32c14.336 0 25.6 11.264 25.6 25.6s-11.264 25.6-25.6 25.6z" p-id="7677" fill="#2c2c2c"></path></svg>